<svg xmlns="http://www.w3.org/2000/svg" aria-hidden="true" style="position:absolute;width:0;height:0;overflow:hidden">
  <defs>
    <symbol id="icon-coconut" viewBox="0 0 43 32">
      <path d="M0 0h42.8v32H0V0z"/>
    </symbol>
    <symbol id="icon-raspberry" viewBox="0 0 43 32">
      <path d="M0 0h42.8v32H0V0z"/>
    </symbol>
    <symbol id="icon-cacao" viewBox="0 0 43 32">
      <path d="M0 0h42.8v32H0V0z"/>
    </symbol>
    <symbol id="icon-coffee" viewBox="0 0 43 32">
      <path d="M0 0h42.8v32H0V0z"/>
    </symbol>
    <symbol id="icon-nuts" viewBox="0 0 43 32">
      <path d="M0 0h42.8v32H0V0z"/>
    </symbol>
    <symbol id="icon-milk" viewBox="0 0 43 32">
      <path d="M0 0h42.8v32H0V0z"/>
    </symbol>
    <symbol id="icon-milk-choco" viewBox="0 0 43 32">
      <path d="M0 0h42.8v32H0V0z"/>
    </symbol>


    <symbol id="icon-arrow" width="24" height="24" viewBox="0 0 24 24" fill="none" xmlns="http://www.w3.org/2000/svg">
      <g clip-path="url(#clip0_609_1376)">
      <path d="M6.85715 12H17.1429M17.1429 12L14.5714 9.42859M17.1429 12L14.5714 14.5714" stroke-linecap="round" stroke-linejoin="round"/>
      <path d="M12 23.1429C18.154 23.1429 23.1429 18.1541 23.1429 12C23.1429 5.84601 18.154 0.857178 12 0.857178C5.84597 0.857178 0.857147 5.84601 0.857147 12C0.857147 18.1541 5.84597 23.1429 12 23.1429Z" stroke-linecap="round" stroke-linejoin="round"/>
      </g>
      <defs>
      <clipPath id="clip0_609_1376">
      <rect width="24" height="24" fill="white"/>
      </clipPath>
      </defs>
    </symbol>

    <symbol id="icon-favicon" viewBox="0 0 32 32">
      <path fill="#fcf1e0" d="M4.314 20.464 15.647 1.797 24.98 7.13l-.667 4.667 2 2-8.667 15.333-13.333-8.667z" style="fill:var(--color2, #fcf1e0)"/>
      <path fill="none" stroke="#fd9222" stroke-linecap="round" stroke-linejoin="round" stroke-width="2.667" d="M20.37 22.715 6.801 14.236m3.933-6.451 13.569 8.479M9.652 24.927 21.451 5.573m4.49 8.002c-2.908-1.817-4.034-3.263-2.067-6.489l-9.207-5.753L2.868 20.687l13.569 8.479 9.504-15.591z" style="stroke:var(--color3, #fd9222)"/>
    </symbol>

  
    <symbol id="arrow-down" width="22" height="22" viewBox="0 0 22 22" fill="none">
      <path d="M11.6508 12.2835C11.5656 12.3694 11.4642 12.4376 11.3525 12.4842C11.2408 12.5307 11.121 12.5547 11 12.5547C10.879 12.5547 10.7592 12.5307 10.6475 12.4842C10.5358 12.4376 10.4344 12.3694 10.3492 12.2835L6.15084 8.076C6.06562 7.99008 5.96424 7.92189 5.85253 7.87535C5.74083 7.82881 5.62102 7.80485 5.50001 7.80485C5.37899 7.80485 5.25918 7.82881 5.14748 7.87535C5.03577 7.92189 4.93439 7.99008 4.84917 8.076C4.67844 8.24775 4.58261 8.48008 4.58261 8.72225C4.58261 8.96442 4.67844 9.19675 4.84917 9.3685L9.05668 13.576C9.5723 14.091 10.2713 14.3802 11 14.3802C11.7288 14.3802 12.4277 14.091 12.9433 13.576L17.1509 9.3685C17.3202 9.19776 17.4157 8.96731 17.4167 8.72684C17.4174 8.6062 17.3943 8.4866 17.3486 8.37492C17.303 8.26324 17.2358 8.16166 17.1509 8.076C17.0656 7.99008 16.9643 7.92189 16.8525 7.87535C16.7408 7.82881 16.621 7.80485 16.5 7.80485C16.379 7.80485 16.2592 7.82881 16.1475 7.87535C16.0358 7.92189 15.9344 7.99008 15.8492 8.076L11.6508 12.2835Z" fill="#FD9222"/>
    </symbol>
    
    
    <symbol id="icon-choco-logo" viewBox="0 0 32 32">
      <path fill="#fcf1e0" d="M4.314 20.464 15.647 1.797 24.98 7.13l-.667 4.667 2 2-8.667 15.333-13.333-8.667z" style="fill:var(--color2, #fcf1e0)"/>
      <path fill="none" stroke="#fd9222" stroke-linecap="round" stroke-linejoin="round" stroke-width="2.667" d="M20.37 22.715 6.801 14.236m3.933-6.451 13.569 8.479M9.652 24.927 21.451 5.573m4.49 8.002c-2.908-1.817-4.034-3.263-2.067-6.489l-9.207-5.753L2.868 20.687l13.569 8.479 9.504-15.591z" style="stroke:var(--color3, #fd9222)"/>
    </symbol>


    <symbol id="icon-play" viewBox="0 0 32 32">
      <path d="M10.909 24V8.727l14.545 7.636-14.545 7.636z"/>
      <path stroke-width=".727" d="M31.636 16c0 8.636-7.001 15.636-15.636 15.636S.364 24.635.364 16C.364 7.364 7.365.364 16 .364S31.636 7.365 31.636 16z"/>
    </symbol>

    <symbol id="icon-spoon" width="32" height="32" viewBox="0 0 32 32" fill="none" xmlns="http://www.w3.org/2000/svg">
      <path d="M15.4515 14.1059C14.669 13.1559 14.275 11.9899 14.275 10.8239C14.275 6.50016 19.4561 2.18176 24.6371 2.18176C27.4975 2.18176 29.8182 4.5029 29.8182 7.36383C29.8182 12.5459 25.5006 17.728 21.1723 17.728C20.0066 17.728 18.8408 17.3339 17.891 16.5512L5.1326 29.3121C4.45798 29.9868 3.3624 29.9868 2.68779 29.3121C2.01317 28.6373 2.01317 27.5415 2.68779 26.8668L15.4515 14.1059Z" fill="#FD9222"/>
    </symbol>
 
   <symbol id="icon-coin" width="32" height="32" viewBox="0 0 28 28" fill="none" xmlns="http://www.w3.org/2000/svg">
    <path d="M14 0.666626C6.66667 0.666626 0.666672 6.66663 0.666672 14C0.666672 21.3333 6.66667 27.3333 14 27.3333C21.3333 27.3333 27.3333 21.3333 27.3333 14C27.3333 6.66663 21.3333 0.666626 14 0.666626ZM14 24.6666C8.13334 24.6666 3.33334 19.8666 3.33334 14C3.33334 8.13329 8.13334 3.33329 14 3.33329C19.8667 3.33329 24.6667 8.13329 24.6667 14C24.6667 19.8666 19.8667 24.6666 14 24.6666Z" fill="#FD9222"/>
    <path d="M15.7333 12.6667H12.2667C11.6 12.6667 11.0667 12.1333 11.0667 11.4667C11.0667 10.8 11.6 10.2667 12.2667 10.2667H17.2C18 10.2667 18.5333 9.73332 18.5333 8.93332C18.5333 8.13332 18 7.59998 17.2 7.59998H15.3333V6.39998C15.3333 5.59998 14.8 5.06665 14 5.06665C13.2 5.06665 12.6667 5.59998 12.6667 6.39998V7.59998H12.2667C10.1333 7.59998 8.40001 9.33332 8.40001 11.4667C8.40001 13.6 10.1333 15.3333 12.2667 15.3333H15.6C16.2667 15.3333 16.8 15.8666 16.8 16.5333C16.8 17.2 16.2667 17.7333 15.6 17.7333H10.6667C9.86668 17.7333 9.33334 18.2667 9.33334 19.0667C9.33334 19.8667 9.86668 20.4 10.6667 20.4H12.6667V21.6C12.6667 22.4 13.2 22.9333 14 22.9333C14.8 22.9333 15.3333 22.4 15.3333 21.6V20.4H15.7333C17.8667 20.4 19.6 18.6667 19.6 16.5333C19.6 14.4 17.8667 12.6667 15.7333 12.6667Z" fill="#FD9222"/>
   </symbol>
   
   <symbol id="icon-chocolate" width="32" height="32" viewBox="0 0 32 32" fill="none" xmlns="http://www.w3.org/2000/svg">
    <path d="M13.8225 2.4135L21.3495 9.9495L21.4295 9.8695C21.5872 9.71518 21.7983 9.62768 22.0189 9.62526C22.2395 9.62284 22.4525 9.70568 22.6135 9.8565L22.6195 9.8625L23.4865 10.7295C23.7915 11.0345 23.8015 11.4995 23.5695 11.8235L23.5655 11.8305L23.4225 12.0225L29.5825 18.1825C30.1325 18.7325 30.1325 19.6125 29.5825 20.1625L20.1525 29.5925C19.6025 30.1425 18.7225 30.1425 18.1725 29.5925L13.7255 25.1455C13.6516 25.2386 13.5589 25.315 13.4534 25.3697C13.3479 25.4244 13.2321 25.4561 13.1134 25.4628C12.9948 25.4695 12.8761 25.451 12.7651 25.4086C12.6541 25.3661 12.5534 25.3007 12.4695 25.2165L9.8695 22.6165C9.71518 22.4588 9.62768 22.2477 9.62526 22.0271C9.62284 21.8065 9.70568 21.5935 9.8565 21.4325L9.8625 21.4255L9.9395 21.3495L2.4125 13.8225C1.8625 13.2725 1.8625 12.3925 2.4125 11.8425L11.8425 2.4125C12.3925 1.8625 13.2725 1.8625 13.8225 2.4125V2.4135ZM20.4045 10.8935L18.6485 9.1385C18.5933 9.08159 18.5273 9.03634 18.4543 9.00544C18.3812 8.97454 18.3028 8.95862 18.2235 8.95862C18.1442 8.95862 18.0658 8.97454 17.9928 9.00544C17.9197 9.03634 17.8537 9.08159 17.7985 9.1385L14.2185 12.7185C14.1618 12.7748 14.1168 12.8418 14.086 12.9156C14.0553 12.9894 14.0395 13.0686 14.0395 13.1485C14.0395 13.2284 14.0553 13.3076 14.086 13.3814C14.1168 13.4552 14.1618 13.5222 14.2185 13.5785L15.9675 15.3275L16.5775 14.7175L15.0125 13.1525L18.2225 9.9325L19.7915 11.5065L20.4045 10.8935ZM15.3285 15.9655L13.5745 14.2115C13.5193 14.1546 13.4533 14.1093 13.3803 14.0784C13.3072 14.0475 13.2288 14.0316 13.1495 14.0316C13.0702 14.0316 12.9918 14.0475 12.9187 14.0784C12.8457 14.1093 12.7797 14.1546 12.7245 14.2115L9.1445 17.7915L9.1395 17.7965L9.1345 17.8015C8.8945 18.0315 8.8945 18.4115 9.1345 18.6515L10.8865 20.4035L11.5025 19.7875L9.9325 18.2235L13.1525 15.0135L14.7165 16.5765L15.3285 15.9655ZM8.8225 8.1935L12.4025 11.7735C12.6425 12.0135 13.0225 12.0135 13.2525 11.7635L16.8325 8.1835C16.8894 8.12933 16.9347 8.06417 16.9656 7.99197C16.9965 7.91978 17.0125 7.84205 17.0125 7.7635H17.0225C17.0225 7.6135 16.9625 7.4535 16.8425 7.3335L13.2625 3.7535C13.2062 3.69666 13.1393 3.65153 13.0655 3.62074C12.9917 3.58994 12.9125 3.57409 12.8325 3.57409C12.7525 3.57409 12.6733 3.58994 12.5995 3.62074C12.5257 3.65153 12.4588 3.69666 12.4025 3.7535L8.8225 7.3435C8.5825 7.5735 8.5825 7.9535 8.8225 8.1935ZM3.7525 13.2635L7.3325 16.8435C7.5725 17.0835 7.9525 17.0835 8.1825 16.8435L11.7625 13.2635C11.8206 13.2082 11.8666 13.1414 11.8976 13.0674C11.9286 12.9934 11.9439 12.9137 11.9425 12.8335H11.9525C11.9525 12.6735 11.8925 12.5235 11.7725 12.4035L8.1925 8.8235C8.13731 8.76659 8.07126 8.72134 7.99825 8.69044C7.92525 8.65954 7.84678 8.64361 7.7675 8.64361C7.68822 8.64361 7.60976 8.65954 7.53675 8.69044C7.46374 8.72134 7.39769 8.76659 7.3425 8.8235L3.7525 12.4135C3.5125 12.6435 3.5125 13.0235 3.7525 13.2635ZM10.6855 22.0175L13.0475 24.3805L22.6835 11.3405L22.0285 10.6855L10.6855 22.0175Z" fill="#111111"/>
    <path d="M13.8225 2.4135L21.3495 9.9495L21.4295 9.8695C21.5872 9.71518 21.7983 9.62768 22.0189 9.62526C22.2395 9.62284 22.4525 9.70568 22.6135 9.8565L22.6195 9.8625L23.4865 10.7295C23.7915 11.0345 23.8015 11.4995 23.5695 11.8235L23.5655 11.8305L23.4225 12.0225L29.5825 18.1825C30.1325 18.7325 30.1325 19.6125 29.5825 20.1625L20.1525 29.5925C19.6025 30.1425 18.7225 30.1425 18.1725 29.5925L13.7255 25.1455C13.6516 25.2386 13.5589 25.315 13.4534 25.3697C13.3479 25.4244 13.2321 25.4561 13.1134 25.4628C12.9948 25.4695 12.8761 25.451 12.7651 25.4086C12.6541 25.3661 12.5534 25.3007 12.4695 25.2165L9.8695 22.6165C9.71518 22.4588 9.62768 22.2477 9.62526 22.0271C9.62284 21.8065 9.70568 21.5935 9.8565 21.4325L9.8625 21.4255L9.9395 21.3495L2.4125 13.8225C1.8625 13.2725 1.8625 12.3925 2.4125 11.8425L11.8425 2.4125C12.3925 1.8625 13.2725 1.8625 13.8225 2.4125V2.4135ZM20.4045 10.8935L18.6485 9.1385C18.5933 9.08159 18.5273 9.03634 18.4543 9.00544C18.3812 8.97454 18.3028 8.95862 18.2235 8.95862C18.1442 8.95862 18.0658 8.97454 17.9928 9.00544C17.9197 9.03634 17.8537 9.08159 17.7985 9.1385L14.2185 12.7185C14.1618 12.7748 14.1168 12.8418 14.086 12.9156C14.0553 12.9894 14.0395 13.0686 14.0395 13.1485C14.0395 13.2284 14.0553 13.3076 14.086 13.3814C14.1168 13.4552 14.1618 13.5222 14.2185 13.5785L15.9675 15.3275L16.5775 14.7175L15.0125 13.1525L18.2225 9.9325L19.7915 11.5065L20.4045 10.8935ZM15.3285 15.9655L13.5745 14.2115C13.5193 14.1546 13.4533 14.1093 13.3803 14.0784C13.3072 14.0475 13.2288 14.0316 13.1495 14.0316C13.0702 14.0316 12.9918 14.0475 12.9187 14.0784C12.8457 14.1093 12.7797 14.1546 12.7245 14.2115L9.1445 17.7915L9.1395 17.7965L9.1345 17.8015C8.8945 18.0315 8.8945 18.4115 9.1345 18.6515L10.8865 20.4035L11.5025 19.7875L9.9325 18.2235L13.1525 15.0135L14.7165 16.5765L15.3285 15.9655ZM8.8225 8.1935L12.4025 11.7735C12.6425 12.0135 13.0225 12.0135 13.2525 11.7635L16.8325 8.1835C16.8894 8.12933 16.9347 8.06417 16.9656 7.99197C16.9965 7.91978 17.0125 7.84205 17.0125 7.7635H17.0225C17.0225 7.6135 16.9625 7.4535 16.8425 7.3335L13.2625 3.7535C13.2062 3.69666 13.1393 3.65153 13.0655 3.62074C12.9917 3.58994 12.9125 3.57409 12.8325 3.57409C12.7525 3.57409 12.6733 3.58994 12.5995 3.62074C12.5257 3.65153 12.4588 3.69666 12.4025 3.7535L8.8225 7.3435C8.5825 7.5735 8.5825 7.9535 8.8225 8.1935ZM3.7525 13.2635L7.3325 16.8435C7.5725 17.0835 7.9525 17.0835 8.1825 16.8435L11.7625 13.2635C11.8206 13.2082 11.8666 13.1414 11.8976 13.0674C11.9286 12.9934 11.9439 12.9137 11.9425 12.8335H11.9525C11.9525 12.6735 11.8925 12.5235 11.7725 12.4035L8.1925 8.8235C8.13731 8.76659 8.07126 8.72134 7.99825 8.69044C7.92525 8.65954 7.84678 8.64361 7.7675 8.64361C7.68822 8.64361 7.60976 8.65954 7.53675 8.69044C7.46374 8.72134 7.39769 8.76659 7.3425 8.8235L3.7525 12.4135C3.5125 12.6435 3.5125 13.0235 3.7525 13.2635ZM10.6855 22.0175L13.0475 24.3805L22.6835 11.3405L22.0285 10.6855L10.6855 22.0175Z" fill="#FD9222"/>
   </symbol>
    
    <symbol id="facebook-icon" width="24" height="24" viewBox="0 0 24 24" fill="none" xmlns="http://www.w3.org/2000/svg">
      <path d="M14.64 3.48017C14.82 3.48017 15 3.48017 15.36 3.48017V6.18017C15.18 6.18017 14.82 6.18017 14.46 6.18017C14.1 6.18017 13.74 6.18017 13.56 6.36017C13.38 6.54017 13.38 6.72017 13.38 7.14017C13.38 7.50017 13.38 7.74017 13.38 8.10017H15.36V10.3802H13.38V20.2802H10.32V10.3202H8.70001V8.04017H10.32V7.26017C10.32 5.94017 10.5 4.98017 10.86 4.56017C11.4 3.78017 12.48 3.42017 14.1 3.42017C14.28 3.48017 14.46 3.48017 14.64 3.48017Z" fill="#111111"/>
    </symbol>

    <symbol id="instagram-icon" width="24" height="24" viewBox="0 0 24 24" fill="none" xmlns="http://www.w3.org/2000/svg">
      <path d="M21.5382 8.06687C21.5264 7.26111 21.3772 6.46173 21.0914 5.70812C20.5914 4.42124 19.5732 3.40365 18.2841 2.9055C17.5389 2.62556 16.7509 2.47548 15.9534 2.45845C14.9278 2.41268 14.6026 2.3999 11.9989 2.3999C9.39529 2.3999 9.06157 2.3999 8.04335 2.45845C7.24691 2.47548 6.45899 2.62556 5.71372 2.9055C4.42469 3.40365 3.40541 4.42124 2.90644 5.70812C2.62603 6.45215 2.47463 7.23875 2.4597 8.03388C2.41385 9.05891 2.39999 9.38356 2.39999 11.9829C2.39999 14.5822 2.39999 14.9143 2.4597 15.9319C2.47569 16.7281 2.62603 17.5136 2.90644 18.2598C3.40648 19.5456 4.42469 20.5632 5.71479 21.0613C6.45686 21.3508 7.24477 21.5148 8.04442 21.5403C9.07116 21.5861 9.39635 21.5999 12 21.5999C14.6036 21.5999 14.9374 21.5999 15.9556 21.5403C16.752 21.5243 17.5399 21.3742 18.2863 21.0943C19.5753 20.5951 20.5935 19.5775 21.0936 18.2917C21.374 17.5466 21.5243 16.7611 21.5403 15.9638C21.5861 14.9398 21.6 14.6152 21.6 12.0148C21.5979 9.41549 21.5979 9.08552 21.5382 8.06687ZM11.9925 16.8984C9.26948 16.8984 7.06352 14.6961 7.06352 11.9776C7.06352 9.25902 9.26948 7.05674 11.9925 7.05674C14.7135 7.05674 16.9215 9.25902 16.9215 11.9776C16.9215 14.6961 14.7135 16.8984 11.9925 16.8984ZM17.1177 8.02217C16.4812 8.02217 15.9684 7.50912 15.9684 6.87472C15.9684 6.24033 16.4812 5.72728 17.1177 5.72728C17.7521 5.72728 18.266 6.24033 18.266 6.87472C18.266 7.50912 17.7521 8.02217 17.1177 8.02217Z" fill="#111111"/>
      <path d="M11.9941 14.9821C13.6526 14.9821 14.9971 13.6376 14.9971 11.9791C14.9971 10.3206 13.6526 8.97607 11.9941 8.97607C10.3355 8.97607 8.99106 10.3206 8.99106 11.9791C8.99106 13.6376 10.3355 14.9821 11.9941 14.9821Z" fill="#111111"/>
    </symbol>

    <symbol id="twitter-icon" width="24" height="24" viewBox="0 0 24 24" fill="none" xmlns="http://www.w3.org/2000/svg">
        <path d="M22 5.92375C21.2563 6.25 20.4637 6.46625 19.6375 6.57125C20.4875 6.06375 21.1363 5.26625 21.4412 4.305C20.6488 4.7775 19.7738 5.11125 18.8412 5.2975C18.0887 4.49625 17.0162 4 15.8462 4C13.5763 4 11.7487 5.8425 11.7487 8.10125C11.7487 8.42625 11.7762 8.73875 11.8438 9.03625C8.435 8.87 5.41875 7.23625 3.3925 4.7475C3.03875 5.36125 2.83125 6.06375 2.83125 6.82C2.83125 8.24 3.5625 9.49875 4.6525 10.2275C3.99375 10.215 3.3475 10.0238 2.8 9.7225C2.8 9.735 2.8 9.75125 2.8 9.7675C2.8 11.76 4.22125 13.415 6.085 13.7962C5.75125 13.8875 5.3875 13.9312 5.01 13.9312C4.7475 13.9312 4.4825 13.9163 4.23375 13.8612C4.765 15.485 6.2725 16.6788 8.065 16.7175C6.67 17.8088 4.89875 18.4662 2.98125 18.4662C2.645 18.4662 2.3225 18.4513 2 18.41C3.81625 19.5813 5.96875 20.25 8.29 20.25C15.835 20.25 19.96 14 19.96 8.5825C19.96 8.40125 19.9538 8.22625 19.945 8.0525C20.7588 7.475 21.4425 6.75375 22 5.92375Z" fill="#111111"/>
    </symbol>


    <symbol id="icon-fcbk" viewBox="0 0 32 32"><path d="M21.329 5.313h2.921V.225C23.746.156 22.013 0 19.994 0c-4.212 0-7.097 2.649-7.097 7.519V12H8.249v5.688h4.648V32h5.699V17.689h4.46l.708-5.688h-5.169V8.082c.001-1.644.444-2.769 2.735-2.769z"/></symbol>
    
    <symbol id="icon-twtr" viewBox="0 0 32 32"><path  d="M32 6.078c-1.19.522-2.458.868-3.78 1.036a6.523 6.523 0 0 0 2.886-3.626 13.11 13.11 0 0 1-4.16 1.588A6.574 6.574 0 0 0 22.154 3c-3.632 0-6.556 2.948-6.556 6.562 0 .52.044 1.02.152 1.496-5.454-.266-10.28-2.88-13.522-6.862a6.605 6.605 0 0 0-.898 3.316 6.57 6.57 0 0 0 2.914 5.452 6.479 6.479 0 0 1-2.964-.808v.072c0 3.188 2.274 5.836 5.256 6.446a6.548 6.548 0 0 1-1.72.216 5.8 5.8 0 0 1-1.242-.112c.85 2.598 3.262 4.508 6.13 4.57a13.182 13.182 0 0 1-8.134 2.798c-.538 0-1.054-.024-1.57-.09A18.469 18.469 0 0 0 10.064 29c12.072 0 18.672-10 18.672-18.668 0-.29-.01-.57-.024-.848A13.087 13.087 0 0 0 32 6.078z" /></symbol>
    
    <symbol id="icon-instgrm" viewBox="0 0 32 32"><path d="M31.969 9.408c-.075-1.7-.35-2.869-.744-3.882a7.793 7.793 0 0 0-1.851-2.838A7.867 7.867 0 0 0 26.542.844C25.523.45 24.361.175 22.66.1 20.947.019 20.403 0 16.059 0s-4.888.019-6.595.094c-1.7.075-2.869.35-3.882.744a7.803 7.803 0 0 0-2.838 1.85A7.867 7.867 0 0 0 .9 5.52C.506 6.539.231 7.702.156 9.402c-.081 1.713-.1 2.257-.1 6.601s.019 4.888.094 6.595c.075 1.7.35 2.869.744 3.882a7.895 7.895 0 0 0 1.85 2.838 7.867 7.867 0 0 0 2.832 1.844c1.019.394 2.182.669 3.882.744 1.706.075 2.25.094 6.595.094s4.888-.019 6.595-.094c1.7-.075 2.869-.35 3.882-.744a8.181 8.181 0 0 0 4.682-4.682c.394-1.019.669-2.182.744-3.882.075-1.707.094-2.25.094-6.595s-.006-4.888-.081-6.595zm-2.882 13.065c-.069 1.563-.331 2.407-.55 2.969a5.31 5.31 0 0 1-3.038 3.038c-.563.219-1.413.481-2.969.55-1.688.075-2.194.094-6.464.094s-4.782-.019-6.464-.094c-1.563-.069-2.407-.331-2.969-.55a4.926 4.926 0 0 1-1.838-1.194 4.974 4.974 0 0 1-1.194-1.838c-.219-.563-.481-1.413-.55-2.969-.075-1.688-.094-2.194-.094-6.464s.019-4.782.094-6.464c.069-1.563.331-2.407.55-2.969a4.868 4.868 0 0 1 1.2-1.838A4.974 4.974 0 0 1 6.639 3.55c.563-.219 1.413-.481 2.969-.55 1.688-.075 2.194-.094 6.464-.094 4.276 0 4.782.019 6.464.094 1.563.069 2.407.331 2.969.55a4.914 4.914 0 0 1 1.838 1.194 4.974 4.974 0 0 1 1.194 1.838c.219.563.481 1.413.55 2.969.075 1.688.094 2.194.094 6.464s-.019 4.77-.094 6.458z" /><path d="M16.059 7.783c-4.538 0-8.22 3.682-8.22 8.22s3.682 8.22 8.22 8.22c4.539 0 8.22-3.682 8.22-8.22s-3.682-8.22-8.22-8.22zm0 13.552a5.333 5.333 0 0 1 0-10.664 5.332 5.332 0 0 1 0 10.664zM26.524 7.458a1.919 1.919 0 1 1-3.838 0 1.919 1.919 0 0 1 3.838 0z"/></symbol>
  </defs>
</svg>
